# xmcd
#
# Track frame offsets:
#	199
#	18364
#	36519
#	48671
#	64113
#	80782
#	96629
#	114859
#	122868
#	137884
#	152377
#	164073
#	176922
#
# Disc length: 2523
#
# Revision: 1
# Processed by: cddbd v1.5.1PL0 Copyright (c) Steve Scherf et al.
# Submitted via: VisiTrax 2.9.5.180 - For more info visit www.synapsa.com
# Normalized: r0:DSETVAR1
#
DISCID=bd09d90d
DTITLE=Various Artist - CDX 252 November 2000
DYEAR=2000
DGENRE=
TTITLE0=Chalee Tennison - Go back
TTITLE1=Trent Summar and The New Row Mob - It never rains in southern California
TTITLE2=Danni Leigh - Longnecks cigarettes
TTITLE3=Aaron Tippin - People like us
TTITLE4=Mindy McCready - Scream
TTITLE5=Collin raye - She's all that
TTITLE6=Steve Holy - The hunger
TTITLE7=Marshall Dyllon - The star spangled banner
TTITLE8=Alabama - When it all goes south
TTITLE9=Joe Kidd Baker - Lincoln continental
TTITLE10=Sonny Burgess - When in Texas
TTITLE11=4 Sisters and A Cousin - White christmas
TTITLE12=Shenandoah - The booger song
EXTD=
EXTT0=
EXTT1=
EXTT2=
EXTT3=
EXTT4=
EXTT5=
EXTT6=
EXTT7=
EXTT8=
EXTT9=
EXTT10=
EXTT11=
EXTT12=
PLAYORDER=
